<?xml version="1.0" encoding="UTF-8" standalone="no"?>
<!DOCTYPE svg PUBLIC "-//W3C//DTD SVG 1.1//EN" "http://www.w3.org/Graphics/SVG/1.1/DTD/svg11.dtd">
<svg width="100%" height="100%" viewBox="0 0 833 792" version="1.1" xmlns="http://www.w3.org/2000/svg" xmlns:xlink="http://www.w3.org/1999/xlink" xml:space="preserve" xmlns:serif="http://www.serif.com/" style="fill-rule:evenodd;clip-rule:evenodd;stroke-linejoin:round;stroke-miterlimit:2;">
    <g transform="matrix(1,0,0,1,-209.944095,-232.707817)">
        <g transform="matrix(1.224609,0,0,1.224609,0,0)">
            <path d="M850.921,517.501C850.909,521.424 864.612,655.057 735.647,721.787C673.764,753.807 624.343,737.856 598.643,749.81C581.363,757.848 574.978,772.434 539.029,820.132C534.847,825.68 529.164,834.574 513.459,836.164C492.371,838.299 482.789,820.285 469.082,801.807C467.515,799.695 464.5,795.968 457.104,785.787C429.283,747.49 426.765,744.365 379.499,744.184C289.016,743.837 186.84,678.569 172.466,558.503C171.374,549.387 170.568,395.3 173.209,378.461C176.355,358.405 183.781,305.934 236.678,252.677C308.021,180.847 393.945,190.464 421.5,190.446C637.814,190.303 637.816,189.356 656.522,191.25C769.029,202.641 850.942,299.046 850.922,403.5L850.921,517.501ZM357.062,462.5C357.062,495.63 353.27,522.174 378.574,528.163C395.881,532.259 414.057,522.051 415.12,499.482C415.144,498.966 415.241,417.759 415.067,416.549C409.09,375.047 358.461,383.589 357.147,417.471C357.064,419.611 356.979,452.067 357.062,462.5ZM635.486,528.939C637.458,528.825 649.299,529.992 658.339,519.362C667.039,509.131 665.41,507.696 665.505,432.5C665.512,426.634 669.995,394.575 641.564,389.181C625.229,386.083 607.582,397.789 607.246,419.499C605.952,503.16 607.564,506.588 610.764,513.39C617.431,527.558 633.156,528.761 635.486,528.939Z" style="fill:rgb(0,77,252);"/>
        </g>
    </g>
</svg>
