<?xml version="1.0" encoding="UTF-8" standalone="no"?>

<svg width="100%" height="100%" viewBox="0 0 833 792" version="1.1" xmlns="http://www.w3.org/2000/svg" xmlns:xlink="http://www.w3.org/1999/xlink" xml:space="preserve" xmlns:serif="http://www.serif.com/" style="fill-rule:evenodd;clip-rule:evenodd;stroke-linejoin:round;stroke-miterlimit:2;">
    <g transform="matrix(1,0,0,1,-209.944095,-232.707817)">
        <g transform="matrix(1.224609,0,0,1.224609,0,0)">
            <path d="M850.921,517.501C850.909,521.424 864.612,655.057 735.647,721.787C673.764,753.807 624.343,737.856 598.643,749.81C581.363,757.848 574.978,772.434 539.029,820.132C534.847,825.68 529.164,834.574 513.459,836.164C492.371,838.299 482.789,820.285 469.082,801.807C467.515,799.695 464.5,795.968 457.104,785.787C429.283,747.49 426.765,744.365 379.499,744.184C289.016,743.837 186.84,678.569 172.466,558.503C171.374,549.387 170.568,395.3 173.209,378.461C176.355,358.405 183.781,305.934 236.678,252.677C308.021,180.847 393.945,190.464 421.5,190.446C637.814,190.303 637.816,189.356 656.522,191.25C769.029,202.641 850.942,299.046 850.922,403.5L850.921,517.501ZM388.489,690.924C410.296,692.178 455.203,690.717 482.913,731.209C482.939,731.248 482.913,731.211 508.053,764.852C509.938,767.374 510.197,769.689 512.164,767.178C546.497,723.337 551.739,693.932 628.473,691.124C640.958,690.667 720.621,696.987 771.084,620.228C800.16,576.001 795.529,530.341 795.638,486.501C795.904,378.724 796.618,375.276 781.096,339.682C762.631,297.337 710.199,251.005 645.504,250.36C617.758,250.084 402.62,250.304 381.5,250.325C307.869,250.4 227.175,307.744 227.125,410.499C227.056,553.101 226.796,553.262 230.923,570.401C242.996,620.533 272.869,646.816 283.854,656.084C328.569,693.812 382.432,690.828 388.489,690.924Z" style="fill:rgb(0,77,252);"></path>
        </g>
        <g transform="matrix(1.224609,0,0,1.224609,0,0)">
            <path d="M635.486,528.939C633.156,528.761 617.431,527.558 610.764,513.39C607.564,506.588 605.952,503.16 607.246,419.499C607.582,397.789 625.229,386.083 641.564,389.181C669.995,394.575 665.512,426.634 665.505,432.5C665.41,507.696 667.039,509.131 658.339,519.362C649.299,529.992 637.458,528.825 635.486,528.939Z" style="fill:rgb(1,78,252);"></path>
        </g>
        <g transform="matrix(1.224609,0,0,1.224609,0,0)">
            <path d="M357.062,462.5C356.979,452.067 357.064,419.611 357.147,417.471C358.461,383.589 409.09,375.047 415.067,416.549C415.241,417.759 415.144,498.966 415.12,499.482C414.057,522.051 395.881,532.259 378.574,528.163C353.27,522.174 357.062,495.63 357.062,462.5Z" style="fill:rgb(1,78,252);"></path>
        </g>
    </g>
</svg>